<mxfile host="app.diagrams.net" modified="2024-05-22T15:48:58.926Z" agent="Mozilla/5.0 (Windows NT 10.0; Win64; x64) AppleWebKit/537.36 (KHTML, like Gecko) Chrome/124.0.0.0 Safari/537.36" etag="RARBpQp3b8WvnOaAphkx" version="24.4.6" type="github">
  <diagram name="Page-1" id="pqKrRmiH1XkKmJXzSl1p">
    <mxGraphModel dx="1485" dy="643" grid="1" gridSize="10" guides="1" tooltips="1" connect="1" arrows="1" fold="1" page="1" pageScale="1" pageWidth="827" pageHeight="1169" math="0" shadow="0">
      <root>
        <mxCell id="0" />
        <mxCell id="1" parent="0" />
        <mxCell id="SoJI1gZDdz-2HXidh8P8-1" value="&lt;p style=&quot;margin:0px;margin-top:4px;text-align:center;&quot;&gt;&amp;lt;&amp;lt;requirement&amp;gt;&amp;gt;&lt;br&gt;&lt;b&gt;Check-in&lt;/b&gt;&lt;/p&gt;&lt;hr&gt;&lt;p&gt;&lt;/p&gt;&lt;p style=&quot;margin:0px;margin-left:8px;text-align:left;&quot;&gt;&lt;b&gt;Text&amp;nbsp;&lt;/b&gt;= &quot;The system should enable check-in of an appointment&quot;&lt;br&gt;&lt;b&gt;Id&amp;nbsp; &amp;nbsp; &amp;nbsp;&lt;/b&gt;= &quot;1.0&quot;&lt;/p&gt;" style="shape=rect;overflow=fill;html=1;whiteSpace=wrap;align=center;" vertex="1" parent="1">
          <mxGeometry x="299.9999999999999" y="40" width="200" height="100" as="geometry" />
        </mxCell>
        <mxCell id="SoJI1gZDdz-2HXidh8P8-2" value="&lt;p style=&quot;margin:0px;margin-top:4px;text-align:center;&quot;&gt;&amp;lt;&amp;lt;requirement&amp;gt;&amp;gt;&lt;br&gt;&lt;b&gt;Appointment Provided&lt;/b&gt;&lt;/p&gt;&lt;hr&gt;&lt;p&gt;&lt;/p&gt;&lt;p style=&quot;margin:0px;margin-left:8px;text-align:left;&quot;&gt;&lt;b&gt;Text&amp;nbsp;&lt;/b&gt;= &quot;The system should&lt;span style=&quot;background-color: initial;&quot;&gt;&amp;nbsp;get appointment provided&quot;&lt;/span&gt;&lt;/p&gt;&lt;p style=&quot;margin:0px;margin-left:8px;text-align:left;&quot;&gt;&lt;b&gt;Id&amp;nbsp; &amp;nbsp; &amp;nbsp;&lt;/b&gt;= &quot;1.0&quot;&lt;/p&gt;" style="shape=rect;overflow=fill;html=1;whiteSpace=wrap;align=center;" vertex="1" parent="1">
          <mxGeometry x="29.999999999999886" y="240" width="200" height="100" as="geometry" />
        </mxCell>
        <mxCell id="SoJI1gZDdz-2HXidh8P8-3" value="" style="endArrow=circlePlus;html=1;rounded=0;strokeWidth=2;endFill=0;exitX=0.91;exitY=-0.034;exitDx=0;exitDy=0;exitPerimeter=0;" edge="1" parent="1" source="SoJI1gZDdz-2HXidh8P8-2" target="SoJI1gZDdz-2HXidh8P8-1">
          <mxGeometry width="50" height="50" relative="1" as="geometry">
            <mxPoint x="410" y="359" as="sourcePoint" />
            <mxPoint x="410" y="300" as="targetPoint" />
            <Array as="points">
              <mxPoint x="212" y="200" />
              <mxPoint x="400" y="200" />
            </Array>
          </mxGeometry>
        </mxCell>
        <mxCell id="SoJI1gZDdz-2HXidh8P8-4" value="&lt;p style=&quot;margin:0px;margin-top:4px;text-align:center;&quot;&gt;&amp;lt;&amp;lt;requirement&amp;gt;&amp;gt;&lt;br&gt;&lt;b&gt;Card Validated&lt;/b&gt;&lt;/p&gt;&lt;hr&gt;&lt;p&gt;&lt;/p&gt;&lt;p style=&quot;margin:0px;margin-left:8px;text-align:left;&quot;&gt;&lt;b&gt;Text&amp;nbsp;&lt;/b&gt;= &quot;The system should validate the card&quot;&lt;br&gt;&lt;b&gt;Id&amp;nbsp; &amp;nbsp; &amp;nbsp;&lt;/b&gt;= &quot;1.0&quot;&lt;/p&gt;" style="shape=rect;overflow=fill;html=1;whiteSpace=wrap;align=center;" vertex="1" parent="1">
          <mxGeometry x="289.9999999999999" y="240" width="200" height="100" as="geometry" />
        </mxCell>
        <mxCell id="SoJI1gZDdz-2HXidh8P8-5" value="" style="endArrow=none;html=1;rounded=0;" edge="1" parent="1">
          <mxGeometry width="50" height="50" relative="1" as="geometry">
            <mxPoint x="400" y="240" as="sourcePoint" />
            <mxPoint x="400" y="200" as="targetPoint" />
          </mxGeometry>
        </mxCell>
        <mxCell id="SoJI1gZDdz-2HXidh8P8-7" value="&amp;lt;&amp;lt;actor&amp;gt;&amp;gt;&lt;br&gt;&lt;br&gt;&lt;b&gt;Patient&lt;/b&gt;" style="html=1;align=center;verticalAlign=middle;dashed=0;whiteSpace=wrap;" vertex="1" parent="1">
          <mxGeometry x="70" y="460" width="80" height="51" as="geometry" />
        </mxCell>
        <mxCell id="SoJI1gZDdz-2HXidh8P8-8" value="&lt;p style=&quot;margin:0px;margin-top:4px;text-align:center;&quot;&gt;&amp;lt;&amp;lt;requirement&amp;gt;&amp;gt;&lt;br&gt;&lt;b&gt;Card OK&lt;/b&gt;&lt;/p&gt;&lt;hr&gt;&lt;p&gt;&lt;/p&gt;&lt;p style=&quot;margin:0px;margin-left:8px;text-align:left;&quot;&gt;&lt;b&gt;Text&amp;nbsp;&lt;/b&gt;= &quot;The system should validate the card&quot;&lt;br&gt;&lt;b&gt;Id&amp;nbsp; &amp;nbsp; &amp;nbsp;&lt;/b&gt;= &quot;1.0&quot;&lt;/p&gt;" style="shape=rect;overflow=fill;html=1;whiteSpace=wrap;align=center;" vertex="1" parent="1">
          <mxGeometry x="189.9999999999999" y="380" width="200" height="100" as="geometry" />
        </mxCell>
      </root>
    </mxGraphModel>
  </diagram>
</mxfile>
